<svg width="355" height="184" xmlns="http://www.w3.org/2000/svg" version="1.1" xml:space="preserve">
 <g>
  <title>Layer 1</title>
  <g stroke="null" id="svg_3">
   <g stroke="null" id="svg_4">
    <g stroke="null" id="svg_5">
     <path stroke="null" d="m347.81449,85.92805l0,61.24938l-39.57862,13.84103l-1.82403,0.12623l-5.56396,0.38427l-67.18043,4.65188l-130.78143,0l-59.35069,-7.41667l-7.50853,-0.94075l-1.97315,-0.24666l-25.88101,-14.62687l-0.50481,-0.28684c0.62524,-7.8928 1.69211,-15.92901 3.10888,-24.09135c1.69791,-9.76271 3.91202,-19.70331 6.49322,-29.77004c0.17779,-0.6884 0.38997,-1.35371 0.64812,-2.00183c2.60988,-6.72258 9.13178,-11.24834 16.48539,-11.24834l65.70618,0c2.09368,0 4.05544,-1.0383 5.23136,-2.77059l40.112,-58.9836c4.22754,-6.22357 11.26553,-9.94619 18.79124,-9.94619l114.3765,0c3.89462,0 7.58877,1.7208 10.06662,4.72075c15.79129,19.12395 30.61895,41.17319 44.78699,65.20137c1.07268,1.80695 3.01145,2.9254 5.11071,2.9254c2.55251,0 4.85836,1.0325 6.5277,2.70162c1.66923,1.66944 2.70173,3.9753 2.70173,6.52781z" fill="#FC3C53" id="svg_6"/>
    </g>
    <g stroke="null" opacity="0.4" id="svg_7">
     <path stroke="null" d="m8.36001,143.05582c0.63985,-6.44745 1.55407,-12.98557 2.70355,-19.60835c1.69791,-9.76271 3.91202,-19.70331 6.49322,-29.77004c0.1779,-0.6884 0.38997,-1.35371 0.64823,-2.00183c2.60988,-6.72258 9.13178,-11.24834 16.48539,-11.24834l65.70618,0c2.09379,0 4.05544,-1.0383 5.23136,-2.77059l40.112,-58.9836c4.22754,-6.22357 11.26553,-9.9463 18.79124,-9.9463l114.3765,0c3.89462,0 7.58877,1.7208 10.06662,4.72075c15.79129,19.12395 30.61905,41.17319 44.78699,65.20137c1.07268,1.80695 3.01145,2.9254 5.11071,2.9254c2.55251,0 4.85836,1.0325 6.5277,2.70162c1.16066,1.16066 2.0028,2.6334 2.41479,4.27868l0,-2.62664c0,-2.55251 -1.0325,-4.85836 -2.70162,-6.52759c-1.66923,-1.66912 -3.97519,-2.70162 -6.5277,-2.70162c-2.09937,0 -4.03804,-1.11844 -5.11071,-2.9254c-14.16793,-24.02818 -28.99569,-46.07742 -44.78699,-65.20137c-2.47785,-2.99995 -6.172,-4.72075 -10.06662,-4.72075l-114.3765,0c-7.52571,0 -14.5637,3.72262 -18.79124,9.94619l-40.112,58.9836c-1.17592,1.73229 -3.13757,2.77059 -5.23136,2.77059l-65.70618,0c-7.35361,0 -13.87551,4.52576 -16.48539,11.24834c-0.25815,0.64812 -0.47032,1.31353 -0.64812,2.00183c-2.58119,10.06673 -4.7953,20.00723 -6.49322,29.77004c-1.41677,8.16234 -2.48365,16.19855 -3.10888,24.09135l0.50481,0.28684l0.18725,0.10582z" fill="#FCFFFF" id="svg_8"/>
    </g>
    <rect stroke="null" x="36.63486" y="93.0465" width="310.89279" height="8.60409" fill="url(#SVGID_1_)" id="svg_9"/>
    <g stroke="null" id="svg_10">
     <polygon stroke="null" points="347.814528465271,142.94986581802368 347.814528465271,146.6032166481018 308.23597621917725,158.56465768814087 306.4119710922241,158.6736969947815 300.847975730896,159.00586557388306 233.66757106781006,163.0260682106018 102.88602352142334,163.0260682106018 43.535338401794434,156.61653757095337 36.02682018280029,155.80350351333618 34.05366039276123,155.59038400650024 8.172659873962402,142.94986581802368 " fill="#E82546" id="svg_11"/>
    </g>
    <g stroke="null" id="svg_12">
     <path stroke="null" d="m233.66745,167.61524l-130.78154,0c-0.0593,0 -0.11903,-0.00365 -0.17779,-0.01107l-68.83214,-8.6043c-0.18574,-0.02363 -0.36504,-0.08283 -0.52769,-0.17468l-26.38614,-14.9136c-0.48569,-0.27437 -0.7679,-0.80572 -0.72386,-1.36177c0.60117,-7.5877 1.6529,-15.73768 3.12586,-24.22338c1.624,-9.33761 3.75582,-19.11159 6.51706,-29.8808c0.20143,-0.78058 0.43219,-1.49186 0.70452,-2.1764c2.82054,-7.26348 9.98283,-12.15182 17.81804,-12.15182l65.70575,0c1.62293,0 3.13477,-0.80045 4.0448,-2.14181l40.11276,-58.98457c4.49751,-6.62095 11.96564,-10.57401 19.97715,-10.57401l114.37661,0c4.34861,0 8.42124,1.91041 11.17249,5.24135c14.9729,18.13335 29.66519,39.52157 44.91655,65.38636c0.81205,1.368 2.29758,2.21991 3.87539,2.21991c2.85041,0 5.52883,1.10888 7.54151,3.12167s3.12167,4.6911 3.12167,7.54151l0,61.24971c0,0.60955 -0.38556,1.1525 -0.96095,1.35339l-39.57819,13.84092c-0.12064,0.04254 -0.24655,0.06822 -0.37396,0.07713l-74.56863,5.16271c-0.03309,0.00247 -0.06618,0.00355 -0.09926,0.00355zm-130.69226,-2.86824l130.64252,0l74.32735,-5.14584l38.43515,-13.44118l0,-60.23203c0,-2.08401 -0.80991,-4.04223 -2.28125,-5.51357c-1.47135,-1.47135 -3.42956,-2.28125 -5.51357,-2.28125c-2.58506,0 -5.01575,-1.39013 -6.344,-3.62787c-15.17594,-25.73727 -29.78369,-47.00432 -44.65958,-65.02014c-2.20466,-2.66896 -5.4706,-4.19961 -8.96096,-4.19961l-114.37661,0c-7.06055,0 -13.64164,3.48306 -17.60512,9.31763l-40.11222,58.98414c-1.44363,2.12763 -3.84284,3.39862 -6.41737,3.39862l-65.70575,0c-6.66134,0 -12.74934,4.15234 -15.14919,10.33326c-0.23183,0.58334 -0.42542,1.18182 -0.59591,1.84165c-2.7418,10.69304 -4.85847,20.39473 -6.46937,29.65681c-1.39894,8.05931 -2.4135,15.80794 -3.01832,23.04843l25.34182,14.32295l68.46237,8.558zm244.83919,-17.56945l0.00526,0l-0.00526,0z" fill="#000072" id="svg_13"/>
    </g>
    <g stroke="null" id="svg_14">
     <g stroke="null" id="svg_15">
      <path stroke="null" d="m305.94151,142.0895l39.69163,0c4.16717,0 6.85847,4.39599 4.98448,8.11808c-0.09669,0.19208 -0.19498,0.38223 -0.29478,0.57055c-3.32449,6.27073 -9.53818,10.49806 -16.54426,11.63326c-11.56708,1.87431 -22.95991,3.16636 -34.14669,3.76946l6.30962,-24.09135z" fill="#647684" id="svg_16"/>
     </g>
     <g stroke="null" opacity="0.4" id="svg_17">
      <path stroke="null" d="m306.26111,145.24436l41.70174,0c1.12607,0 2.14664,0.30145 3.01241,0.80862c-0.6826,-2.21991 -2.71827,-3.96337 -5.34212,-3.96337l-39.69163,0l-6.30962,24.09135c0.33894,-0.01826 0.67959,-0.04308 1.01896,-0.06263l5.61026,-20.87397z" fill="#FFFFFF" id="svg_18"/>
     </g>
     <g stroke="null" id="svg_19">
      <path stroke="null" d="m335.50797,153.52057c-11.33976,1.74894 -22.51752,2.98287 -33.51136,3.6312l-2.36472,9.02907c11.18689,-0.60311 22.57972,-1.89515 34.14669,-3.76946c7.00608,-1.1352 13.21977,-5.36253 16.54426,-11.63326c0.09969,-0.18832 0.19799,-0.37847 0.29457,-0.57055c0.85309,-1.69437 0.75275,-3.5242 0.00537,-5.01961c-3.69985,4.44465 -9.13231,7.40991 -15.11481,8.33261z" fill="#566772" id="svg_20"/>
     </g>
     <g stroke="null" id="svg_21">
      <path stroke="null" d="m299.63189,167.61524c-0.42907,0 -0.83773,-0.19251 -1.11103,-0.52715c-0.28952,-0.35462 -0.39233,-0.82667 -0.27641,-1.26938l6.31037,-24.09286c0.16523,-0.6305 0.73492,-1.07064 1.38691,-1.07064l39.69303,0c0.96041,0 1.88312,0.18521 2.74137,0.55079c1.77193,0.74803 3.17721,2.22883 3.85132,4.06006c0.67562,1.83596 0.56024,3.81824 -0.32519,5.58125l0,0c-0.10539,0.21035 -0.21088,0.41489 -0.32207,0.61954c-3.44847,6.50976 -10.02053,11.13629 -17.57203,12.36109c-10.13806,1.64452 -20.06846,2.81743 -29.51404,3.4851c-1.51861,0.10915 -3.08385,0.20777 -4.78445,0.30005c-0.02589,0.00107 -0.0521,0.00215 -0.07778,0.00215zm7.41667,-24.09178l-5.53087,21.11278c0.95311,-0.05823 1.87109,-0.11903 2.77231,-0.18413c9.36178,-0.66144 19.20549,-1.82436 29.25868,-3.45523c6.6708,-1.08159 12.46712,-5.15218 15.50532,-10.88867c0.10388,-0.18993 0.19359,-0.36408 0.28329,-0.54391c0.00054,-0.00054 0.00107,-0.00161 0.00161,-0.00258c0.52608,-1.047 0.59645,-2.22098 0.19724,-3.30526c-0.40125,-1.08901 -1.23167,-1.96756 -2.27975,-2.41038c-0.50459,-0.21454 -1.04861,-0.32261 -1.62142,-0.32261l-38.58641,0z" fill="#000072" id="svg_22"/>
     </g>
    </g>
    <g stroke="null" id="svg_23">
     <g stroke="null" id="svg_24">
      <path stroke="null" d="m39.21605,142.66317l-31.51995,0c-2.49611,0 -4.31993,2.34335 -3.73111,4.76898c1.39486,5.74594 3.7989,10.23185 7.13306,13.55634c3.38401,3.37423 8.01871,5.19236 12.79757,5.19236l21.63005,0l-6.30962,-23.51768z" fill="#647684" id="svg_25"/>
     </g>
     <g stroke="null" opacity="0.4" id="svg_26">
      <path stroke="null" d="m4.07102,147.82179c0.51813,-1.475 1.9132,-2.57743 3.62508,-2.57743l31.51995,0l5.61713,20.93649l0.69249,0l-6.30962,-23.51768l-31.51995,0c-2.49611,0 -4.31993,2.34335 -3.73111,4.76887c0.03244,0.13364 0.07251,0.25751 0.10603,0.38975z" fill="#FFFFFF" id="svg_27"/>
     </g>
     <g stroke="null" id="svg_28">
      <path stroke="null" d="m22.15377,157.8636c-5.16368,0 -10.17169,-1.81813 -13.82824,-5.19236c-1.69824,-1.56717 -3.16464,-3.40238 -4.40738,-5.49606c0.01483,0.08562 0.02589,0.17103 0.04673,0.25686c1.39486,5.74594 3.7989,10.23185 7.13317,13.55645c3.38401,3.37423 8.01871,5.19236 12.79757,5.19236l21.63005,0l-2.23151,-8.31725l-21.14039,0z" fill="#566772" id="svg_29"/>
     </g>
     <g stroke="null" id="svg_30">
      <path stroke="null" d="m45.52589,167.61524l-21.63059,0c-5.19934,0 -10.23249,-2.04469 -13.80944,-5.61015c-3.5502,-3.54333 -6.07908,-8.33304 -7.51691,-14.23594c-0.38395,-1.58253 -0.02933,-3.22598 0.97309,-4.51008c0.99823,-1.27883 2.49847,-2.01848 4.11571,-2.02998l31.5583,0c0.64887,0 1.21695,0.43595 1.38487,1.06279l6.30983,23.51736c0.11592,0.43068 0.0246,0.89069 -0.24709,1.24478c-0.27126,0.35344 -0.69195,0.56121 -1.13778,0.56121zm-37.85815,-23.5179c-0.72547,0.00473 -1.40893,0.34248 -1.86475,0.92636c-0.46001,0.58957 -0.62319,1.3434 -0.4469,2.06779c1.31085,5.38294 3.58372,9.71791 6.75523,12.88308c3.04292,3.03293 7.33804,4.77242 11.78409,4.77242l19.761,0l-5.54032,-20.64965l-30.44835,0z" fill="#000072" id="svg_31"/>
     </g>
    </g>
    <g stroke="null" id="svg_32">
     <path stroke="null" d="m110.87626,166.18085l-7.99024,0l-59.35069,-7.41667l1.99033,7.41667l-6.33261,0c-1.3709,-2.62137 -2.43778,-5.42054 -3.16625,-8.35743c-0.72848,-2.9254 -1.11275,-5.98841 -1.11275,-9.13747c0,-2.04781 0.16061,-4.06113 0.47612,-6.02278c2.88522,-18.04558 18.5216,-31.83493 37.3817,-31.83493c17.4949,0 32.21921,11.86777 36.55568,27.99757c0.24666,0.91196 0.46463,1.83553 0.63673,2.77618c0.29822,1.81265 0.5162,4.03245 0.65961,6.57357c0,0 0,0 0,0.00569c0.29253,5.01897 0.32132,11.27122 0.25235,17.9996z" fill="#000072" id="svg_33"/>
    </g>
    <g stroke="null" id="svg_34">
     <path stroke="null" d="m308.51701,148.68595c0,4.36516 -0.73997,8.55811 -2.10507,12.45863c-0.56207,1.63485 -1.23908,3.21792 -2.01913,4.73794c-1.59467,0.11473 -3.17775,0.21217 -4.76092,0.29822l1.21609,-4.65188l-67.18043,4.65188l-1.11275,0c-0.06886,-6.72838 -0.04018,-12.98063 0.25235,-17.99971c0,-0.00569 0,-0.00569 0,-0.00569c0.14342,-2.54112 0.36128,-4.76082 0.65961,-6.57357c0.1721,-0.94065 0.39018,-1.86421 0.63673,-2.77618c4.33647,-16.1298 19.06078,-27.99757 36.55579,-27.99757c18.65932,0 34.16378,13.49693 37.28415,31.26137c0.37847,2.13966 0.57356,4.34808 0.57356,6.59656z" fill="#000072" id="svg_35"/>
    </g>
    <g stroke="null" id="svg_36">
     <g stroke="null" id="svg_37">
      <g stroke="null" id="svg_38">
       <circle stroke="null" cx="73.02725" cy="148.91134" r="31.29285" fill="#666666" id="svg_39"/>
      </g>
      <g stroke="null" id="svg_40">
       <path stroke="null" d="m73.02725,122.35986c16.48399,0 29.98135,12.74826 31.19423,28.92221c0.05876,-0.78348 0.09862,-1.57222 0.09862,-2.37063c0,-17.28262 -14.01034,-31.29285 -31.29285,-31.29285s-31.29285,14.01034 -31.29285,31.29285c0,0.79852 0.03986,1.58726 0.09862,2.37063c1.21287,-16.17385 14.71013,-28.92221 31.19423,-28.92221z" fill="#515151" id="svg_41"/>
      </g>
      <g stroke="null" id="svg_42">
       <path stroke="null" d="m73.02725,173.56637c-16.16128,0 -29.45839,-12.25205 -31.11623,-27.97394c-0.11506,1.09094 -0.17661,2.19767 -0.17661,3.31891c0,17.28262 14.01034,31.29285 31.29285,31.29285s31.29285,-14.01034 31.29285,-31.29285c0,-1.12134 -0.06156,-2.22807 -0.17661,-3.31891c-1.65795,15.72189 -14.95496,27.97394 -31.11623,27.97394z" fill="#515151" id="svg_43"/>
      </g>
      <g stroke="null" id="svg_44">
       <ellipse stroke="null" transform="matrix(0.075963 -0.075963 0.075963 0.075963 -55.0907 265.527)" cx="1610.86551" cy="75.68524" rx="194.193" ry="194.193" fill="#000072" id="svg_45"/>
      </g>
      <g stroke="null" id="svg_46">
       <g stroke="null" id="svg_47">
        <path stroke="null" d="m74.7272,128.1173c-12.84011,-1.02197 -23.51596,9.65377 -22.49421,22.49389c0.80411,10.10422 8.98965,18.28998 19.09387,19.0943c12.84033,1.02208 23.51639,-9.65388 22.49431,-22.49421c-0.80411,-10.10422 -8.98975,-18.28976 -19.09398,-19.09398zm-13.58202,9.70287l4.5378,5.85724c0.22528,0.29092 0.23387,0.68518 0.04813,1.00274c-0.00279,0.00483 -0.00569,0.00967 -0.00849,0.0145c-0.18113,0.3109 -0.52039,0.49385 -0.87737,0.44852l-7.37875,-0.93689c-0.56132,-0.07123 -0.90251,-0.64694 -0.71118,-1.17946c0.6912,-1.92362 1.72069,-3.68685 3.01757,-5.2262c0.36268,-0.43036 1.02766,-0.42531 1.3723,0.01955zm-3.77161,18.47465c-0.85245,-1.79578 -1.40119,-3.75765 -1.57985,-5.82973c-0.0492,-0.57088 0.43111,-1.04743 0.99952,-0.97524l7.33599,0.93238c0.36966,0.04695 0.65693,0.32304 0.75383,0.68282c0.00107,0.00397 0.00215,0.00806 0.00322,0.01203c0.09744,0.35924 -0.00859,0.74212 -0.30273,0.97019l-5.85348,4.53822c-0.45271,0.35097 -1.11081,0.18693 -1.3565,-0.33067zm9.83339,8.91799c-1.9204,-0.68636 -3.68234,-1.702 -5.21986,-2.9847c-0.44411,-0.37052 -0.43928,-1.05527 0.01783,-1.40957l5.83006,-4.51857c0.2979,-0.23086 0.70033,-0.23774 1.02723,-0.05028c0.00365,0.00204 0.00731,0.00419 0.01096,0.00623c0.32454,0.18553 0.51856,0.53543 0.4714,0.90627l-0.93033,7.31999c-0.07305,0.57485 -0.66187,0.92561 -1.20729,0.73062zm3.6587,-24.45457c-0.00376,0.00097 -0.00763,0.00204 -0.01139,0.00301c-0.33582,0.09067 -0.69345,-0.01246 -0.9067,-0.28737l-4.60816,-5.94178c-0.33174,-0.42767 -0.17446,-1.04775 0.31498,-1.27905c1.80964,-0.85546 3.79041,-1.40667 5.87604,-1.58017c0.53768,-0.04469 0.98609,0.40479 0.91862,0.94l-0.93742,7.43354c-0.04415,0.34957 -0.30574,0.62051 -0.64597,0.71182zm17.77443,0.69517c0.87211,1.81404 1.43632,3.79858 1.62089,5.89301c0.0463,0.52586 -0.39212,0.96622 -0.91583,0.89972l-7.4937,-0.95053c-0.33657,-0.04265 -0.60085,-0.2921 -0.69034,-0.61943c-0.0015,-0.00548 -0.00301,-0.01096 -0.00451,-0.01633c-0.09121,-0.3312 0.00569,-0.68497 0.27727,-0.8952l5.96241,-4.61525c0.41564,-0.32175 1.01617,-0.16963 1.24381,0.30402zm-9.79139,-8.84279c1.94436,0.6941 3.73122,1.72993 5.28238,3.03669c0.40511,0.3413 0.40286,0.96557 -0.01579,1.29011l-5.94748,4.60934c-0.27233,0.2111 -0.64199,0.22066 -0.93957,0.04684c-0.00333,-0.00193 -0.00666,-0.00387 -0.00988,-0.0058c-0.29414,-0.17124 -0.47,-0.48966 -0.42714,-0.82731l0.94913,-7.48274c0.06693,-0.52769 0.6074,-0.846 1.10834,-0.66713zm-5.14788,32.55191l0.93775,-7.39239c0.04533,-0.35763 0.31015,-0.63695 0.65714,-0.73503c0.00387,-0.00107 0.00784,-0.00226 0.01171,-0.00333c0.35076,-0.09969 0.72697,0.00752 0.95053,0.29554l4.55477,5.86959c0.34248,0.44143 0.18403,1.08213 -0.31906,1.32524c-1.79385,0.86706 -3.75969,1.42751 -5.8336,1.61734c-0.56035,0.05124 -1.03003,-0.41887 -0.95923,-0.97696zm11.31817,-5.24145l-4.58399,-5.91245c-0.21636,-0.27899 -0.22947,-0.65736 -0.055,-0.96439c0.00193,-0.00344 0.00387,-0.00688 0.0058,-0.01031c0.17436,-0.30768 0.50792,-0.48912 0.85879,-0.44486l7.41001,0.93442c0.54574,0.06886 0.87748,0.62663 0.69474,1.14551c-0.68314,1.93931 -1.70124,3.71629 -2.98932,5.26584c-0.35226,0.4237 -1.00349,0.42166 -1.34103,-0.01375z" fill="#D1DEE5" id="svg_48"/>
       </g>
      </g>
      <g stroke="null" id="svg_49">
       <g stroke="null" id="svg_50">
        <path stroke="null" d="m71.32697,167.80893c-10.10433,-0.80421 -18.28976,-8.98997 -19.09387,-19.0943c-0.02063,-0.25761 -0.02847,-0.51287 -0.03986,-0.76876c-0.04007,0.87619 -0.03191,1.76463 0.03986,2.66531c0.804,10.10422 8.98954,18.28998 19.09387,19.0943c12.58239,1.00156 23.07884,-9.23136 22.53406,-21.72491c-0.53242,11.61338 -10.59453,20.77878 -22.53406,19.82836z" fill="#ADC0C9" id="svg_51"/>
       </g>
      </g>
      <g stroke="null" id="svg_52">
       <path stroke="null" d="m73.02725,181.94238c-18.2136,0 -33.03126,-14.81766 -33.03126,-33.03126s14.81766,-33.03126 33.03126,-33.03126s33.03126,14.81766 33.03126,33.03126s-14.81766,33.03126 -33.03126,33.03126zm0,-62.58569c-16.29631,0 -29.55454,13.25812 -29.55454,29.55443s13.25812,29.55443 29.55454,29.55443s29.55443,-13.25812 29.55443,-29.55443s-13.25812,-29.55443 -29.55443,-29.55443z" fill="#000072" id="svg_53"/>
      </g>
      <g stroke="null" id="svg_54">
       <circle stroke="null" cx="73.02725" cy="148.91134" r="4.43875" fill="#9DA9B9" id="svg_55"/>
      </g>
      <g stroke="null" id="svg_56">
       <circle stroke="null" cx="73.02725" cy="148.91134" r="4.43875" fill="#ADC0C9" id="svg_57"/>
      </g>
      <g stroke="null" id="svg_58">
       <path stroke="null" d="m73.02725,154.29836c-2.97052,0 -5.38724,-2.41661 -5.38724,-5.38713c0,-2.96998 2.41661,-5.3867 5.38724,-5.3867c2.97052,0 5.38713,2.41661 5.38713,5.3867c0.00011,2.97052 -2.41661,5.38713 -5.38713,5.38713zm0,-8.87706c-1.92459,0 -3.49036,1.56524 -3.49036,3.48983s1.56578,3.49036 3.49036,3.49036c1.92459,0 3.49036,-1.56578 3.49036,-3.49036s-1.56578,-3.48983 -3.49036,-3.48983z" fill="#000072" id="svg_59"/>
      </g>
     </g>
     <g stroke="null" id="svg_60">
      <ellipse stroke="null" transform="matrix(0.0431005 -0.0984048 0.0984048 0.0431005 -76.3444 371.898)" cx="2476.58185" cy="440.29806" rx="9.71" ry="12.946" fill="#FFFFFF" id="svg_61"/>
     </g>
    </g>
    <g stroke="null" id="svg_62">
     <g stroke="null" id="svg_63">
      <g stroke="null" id="svg_64">
       <circle stroke="null" cx="270.92024" cy="148.91134" r="31.29285" fill="#666666" id="svg_65"/>
      </g>
      <g stroke="null" id="svg_66">
       <path stroke="null" d="m270.92024,122.35986c16.48399,0 29.98135,12.74826 31.19423,28.92221c0.05876,-0.78348 0.09862,-1.57222 0.09862,-2.37063c0,-17.28262 -14.01034,-31.29285 -31.29285,-31.29285s-31.29285,14.01034 -31.29285,31.29285c0,0.79852 0.03986,1.58726 0.09862,2.37063c1.21287,-16.17385 14.71023,-28.92221 31.19423,-28.92221z" fill="#515151" id="svg_67"/>
      </g>
      <g stroke="null" id="svg_68">
       <path stroke="null" d="m270.92024,173.56637c-16.16128,0 -29.45839,-12.25205 -31.11623,-27.97394c-0.11506,1.09094 -0.17661,2.19767 -0.17661,3.31891c0,17.28262 14.01034,31.29285 31.29285,31.29285s31.29285,-14.01034 31.29285,-31.29285c0,-1.12134 -0.06156,-2.22807 -0.17661,-3.31891c-1.65784,15.72189 -14.95496,27.97394 -31.11623,27.97394z" fill="#515151" id="svg_69"/>
      </g>
      <g stroke="null" id="svg_70">
       <ellipse stroke="null" transform="matrix(0.075963 -0.075963 0.075963 0.075963 2.87076 405.458)" cx="3452.94951" cy="75.68524" rx="194.193" ry="194.193" fill="#000072" id="svg_71"/>
      </g>
      <g stroke="null" id="svg_72">
       <g stroke="null" id="svg_73">
        <path stroke="null" d="m272.6203,128.1173c-12.84011,-1.02197 -23.51596,9.65377 -22.49421,22.49389c0.80411,10.10422 8.98965,18.28998 19.09398,19.0943c12.84033,1.02208 23.51639,-9.65388 22.49431,-22.49421c-0.80421,-10.10422 -8.98986,-18.28976 -19.09408,-19.09398zm-13.58202,9.70287l4.5378,5.85724c0.22528,0.29092 0.23387,0.68518 0.04813,1.00274c-0.00279,0.00483 -0.00569,0.00967 -0.00849,0.0145c-0.18113,0.3109 -0.52039,0.49385 -0.87737,0.44852l-7.37875,-0.93689c-0.56132,-0.07123 -0.90251,-0.64694 -0.71118,-1.17946c0.6912,-1.92362 1.72069,-3.68685 3.01757,-5.2262c0.36268,-0.43036 1.02766,-0.42531 1.3723,0.01955zm-3.77161,18.47465c-0.85245,-1.79578 -1.40119,-3.75765 -1.57985,-5.82973c-0.0492,-0.57088 0.43111,-1.04743 0.99952,-0.97524l7.33599,0.93238c0.36966,0.04695 0.65693,0.32304 0.75383,0.68282c0.00107,0.00397 0.00215,0.00806 0.00333,0.01203c0.09733,0.35924 -0.00859,0.74212 -0.30273,0.97019l-5.85348,4.53822c-0.45292,0.35097 -1.11092,0.18693 -1.35661,-0.33067zm9.83329,8.91799c-1.9204,-0.68636 -3.68234,-1.702 -5.21986,-2.9847c-0.44411,-0.37052 -0.43938,-1.05527 0.01783,-1.40957l5.83006,-4.51857c0.2979,-0.23086 0.70033,-0.23774 1.02723,-0.05028c0.00365,0.00204 0.00731,0.00419 0.01096,0.00623c0.32454,0.18553 0.51856,0.53543 0.4714,0.90627l-0.93033,7.31999c-0.07305,0.57485 -0.66187,0.92561 -1.20729,0.73062zm3.6587,-24.45457c-0.00376,0.00097 -0.00763,0.00204 -0.01139,0.00301c-0.33582,0.09067 -0.69345,-0.01246 -0.9067,-0.28737l-4.60816,-5.94178c-0.33174,-0.42767 -0.17446,-1.04775 0.31498,-1.27905c1.80964,-0.85546 3.79041,-1.40667 5.87604,-1.58017c0.53757,-0.04469 0.98609,0.40479 0.91862,0.94l-0.93742,7.43354c-0.04415,0.34957 -0.30564,0.62051 -0.64597,0.71182zm17.77454,0.69517c0.87211,1.81404 1.43632,3.79858 1.62078,5.89301c0.0463,0.52586 -0.39212,0.96622 -0.91583,0.89972l-7.4937,-0.95053c-0.33657,-0.04265 -0.60085,-0.2921 -0.69034,-0.61943c-0.0015,-0.00548 -0.00301,-0.01096 -0.00451,-0.01633c-0.09131,-0.3312 0.00569,-0.68497 0.27727,-0.8952l5.96241,-4.61525c0.41564,-0.32175 1.01617,-0.16963 1.24392,0.30402zm-9.79139,-8.84279c1.94425,0.6941 3.73122,1.72993 5.28238,3.03669c0.40511,0.3413 0.40286,0.96557 -0.01579,1.29011l-5.94737,4.60934c-0.27233,0.2111 -0.64199,0.22066 -0.93957,0.04684c-0.00333,-0.00193 -0.00666,-0.00387 -0.00988,-0.0058c-0.29425,-0.17124 -0.47,-0.48966 -0.42724,-0.82731l0.94913,-7.48274c0.06693,-0.52769 0.6073,-0.846 1.10834,-0.66713zm-5.14799,32.55191l0.93775,-7.39239c0.04533,-0.35763 0.31015,-0.63695 0.65703,-0.73503c0.00387,-0.00107 0.00784,-0.00226 0.01171,-0.00333c0.35076,-0.09969 0.72697,0.00752 0.95053,0.29554l4.55477,5.86959c0.34248,0.44143 0.18403,1.08213 -0.31906,1.32524c-1.79385,0.86706 -3.75969,1.42751 -5.8336,1.61734c-0.56013,0.05124 -1.02992,-0.41887 -0.95912,-0.97696zm11.31817,-5.24145l-4.58399,-5.91245c-0.21636,-0.27899 -0.22947,-0.65736 -0.055,-0.96439c0.00193,-0.00344 0.00387,-0.00688 0.00591,-0.01031c0.17436,-0.30768 0.50792,-0.48912 0.85868,-0.44486l7.41001,0.93442c0.54574,0.06886 0.87748,0.62663 0.69474,1.14551c-0.68314,1.93931 -1.70124,3.71629 -2.98932,5.26584c-0.35215,0.4237 -1.00349,0.42166 -1.34103,-0.01375z" fill="#D1DEE5" id="svg_74"/>
       </g>
      </g>
      <g stroke="null" id="svg_75">
       <g stroke="null" id="svg_76">
        <path stroke="null" d="m269.22007,167.80893c-10.10433,-0.80421 -18.28976,-8.98997 -19.09387,-19.0943c-0.02063,-0.25761 -0.02847,-0.51287 -0.03986,-0.76876c-0.04007,0.87619 -0.03191,1.76463 0.03986,2.66531c0.804,10.10422 8.98954,18.28998 19.09387,19.0943c12.58239,1.00156 23.07884,-9.23136 22.53406,-21.72491c-0.53252,11.61338 -10.59463,20.77878 -22.53406,19.82836z" fill="#ADC0C9" id="svg_77"/>
       </g>
      </g>
      <g stroke="null" id="svg_78">
       <path stroke="null" d="m270.92035,181.94238c-18.2136,0 -33.03126,-14.81766 -33.03126,-33.03126s14.81766,-33.03126 33.03126,-33.03126s33.03126,14.81766 33.03126,33.03126s-14.81766,33.03126 -33.03126,33.03126zm0,-62.58569c-16.29631,0 -29.55443,13.25812 -29.55443,29.55443s13.25812,29.55443 29.55443,29.55443s29.55443,-13.25812 29.55443,-29.55443s-13.25812,-29.55443 -29.55443,-29.55443z" fill="#000072" id="svg_79"/>
      </g>
      <g stroke="null" id="svg_80">
       <circle stroke="null" cx="270.92024" cy="148.91134" r="4.43875" fill="#9DA9B9" id="svg_81"/>
      </g>
      <g stroke="null" id="svg_82">
       <circle stroke="null" cx="270.92024" cy="148.91134" r="4.43875" fill="#ADC0C9" id="svg_83"/>
      </g>
      <g stroke="null" id="svg_84">
       <path stroke="null" d="m270.92035,154.29836c-2.97052,0 -5.38713,-2.41661 -5.38713,-5.38713c0,-2.96998 2.41661,-5.3867 5.38713,-5.3867s5.38713,2.41661 5.38713,5.3867c0.00011,2.97052 -2.41661,5.38713 -5.38713,5.38713zm0,-8.87706c-1.92459,0 -3.49036,1.56524 -3.49036,3.48983s1.56578,3.49036 3.49036,3.49036s3.49036,-1.56578 3.49036,-3.49036s-1.56578,-3.48983 -3.49036,-3.48983z" fill="#000072" id="svg_85"/>
      </g>
     </g>
     <g stroke="null" id="svg_86">
      <path stroke="null" d="m272.88962,147.73091c-0.23108,0.52769 -0.98888,0.70559 -1.69243,0.39749c-0.70355,-0.30821 -1.08654,-0.98577 -0.85546,-1.51346c0.23119,-0.52769 0.98888,-0.70559 1.69243,-0.39749c0.70355,0.30821 1.08654,0.98577 0.85546,1.51346z" fill="#FFFFFF" id="svg_87"/>
     </g>
    </g>
    <g stroke="null" opacity="0.25" id="svg_88">
     <path stroke="null" d="m53.28655,109.61139c10.71399,-13.89786 27.6408,-13.80912 38.2754,0.26642c0.79841,1.05678 -0.35806,2.47108 -1.54988,1.89311c-11.77753,-5.71199 -24.07578,-5.80417 -35.14578,-0.27641c-1.20116,0.59978 -2.39953,-0.81979 -1.57974,-1.88312z" fill="#FFFFFF" id="svg_89"/>
    </g>
    <g stroke="null" opacity="0.25" id="svg_90">
     <path stroke="null" d="m252.32677,109.61139c10.71399,-13.89786 27.6408,-13.80912 38.2754,0.26642c0.79852,1.05678 -0.35806,2.47108 -1.54988,1.89311c-11.77753,-5.71199 -24.07578,-5.80417 -35.14578,-0.27641c-1.20105,0.59978 -2.39942,-0.81979 -1.57974,-1.88312z" fill="#FFFFFF" id="svg_91"/>
    </g>
    <g stroke="null" id="svg_92">
     <path stroke="null" d="m110.62391,148.17545c-0.14342,-2.54112 -0.36139,-4.76082 -0.65961,-6.57357c0.40726,2.13386 0.63093,4.33078 0.65961,6.57357z" fill="#000072" id="svg_93"/>
    </g>
    <g stroke="null" id="svg_94">
     <path stroke="null" d="m109.9643,141.60188c-0.1721,-0.94065 -0.39018,-1.86421 -0.63673,-2.77618l0.00569,-0.00569c0.24666,0.76865 0.45324,1.70361 0.63104,2.78187z" fill="#000072" id="svg_95"/>
    </g>
    <g stroke="null" id="svg_96">
     <path stroke="null" d="m118.88379,76.40985l92.80328,0c0.95794,0 1.86421,-0.22925 2.65006,-0.64049c1.68642,-0.88317 2.82785,-2.57539 2.82785,-4.52383l0,-49.59411c0,-3.02047 -2.59269,-5.4677 -5.78773,-5.4677l-49.23809,0c-0.8489,0 -1.67492,0.13482 -2.45496,0.39104c-1.61756,0.53263 -3.02294,1.57759 -3.9464,2.9934l-0.97513,1.51023l-35.87888,55.33145z" fill="#39D4FF" id="svg_97"/>
    </g>
    <g stroke="null" id="svg_98">
     <path stroke="null" d="m214.24431,22.25271l-49.23594,0c-2.60988,0 -5.03755,1.28442 -6.40426,3.38627l-32.91663,50.77271l-6.80186,0l36.85046,-56.8405c1.36671,-2.10185 3.79439,-3.38627 6.40426,-3.38627l49.23594,0c3.19558,0 5.7859,2.44594 5.7859,5.4634l0,1.35554c-0.85739,-0.47441 -1.85229,-0.75114 -2.91788,-0.75114z" fill="#3B9DFF" id="svg_99"/>
    </g>
    <defs stroke="null" transform="translate(-6.42976 -5.11578) translate(-108.57 -54.2851) translate(0.395187 0) translate(-140.01 -200.015) translate(-690.05 -1110.08) translate(2410.18 -160.012) translate(-1760.13 370.027) translate(-60 -556) translate(-896 -100) translate(900 656) translate(254.615 259.415) scale(0.210294 0.210294) translate(-254.615 -259.415) translate(30.5751 24.3268) scale(0.510851 0.510851) translate(-30.5751 -24.3268)">
     <filter stroke="null" id="Adobe_OpacityMaskFilter" filterUnits="userSpaceOnUse" x="1879.804" y="1310.126" width="425.174" height="560.614"/>
     <linearGradient stroke="null" id="SVGID_1_" x1="-0.28975" y1="0.5" x2="0.71025" y2="0.5">
      <stop stroke="null" offset="0" stop-color="#FC3C53"/>
      <stop stroke="null" offset="1" stop-color="#E82546"/>
     </linearGradient>
     <linearGradient stroke="null" id="SVGID_00000124846944185979319970000002649354721580293021_" x1="0.17462" y1="0.06082" x2="0.80942" y2="0.91746">
      <stop stroke="null" offset="0" stop-color="#999999"/>
      <stop stroke="null" offset="1" stop-color="#000000"/>
     </linearGradient>
     <linearGradient stroke="null" id="SVGID_00000000923034256917642350000009192075638151186108_" x1="0.17462" y1="0.06082" x2="0.80942" y2="0.91746">
      <stop stroke="null" offset="0" stop-color="#FFFFFF"/>
      <stop stroke="null" offset="1" stop-color="#FFFFFF"/>
     </linearGradient>
     <linearGradient stroke="null" id="SVGID_00000092431620808363444730000000109327438663841980_" x1="0.08584" y1="0.11261" x2="1.03786" y2="1.07911">
      <stop stroke="null" offset="0" stop-color="#999999"/>
      <stop stroke="null" offset="1" stop-color="#000000"/>
     </linearGradient>
     <linearGradient stroke="null" id="SVGID_00000045606360755872412750000017083300336679530908_" x1="0.08584" y1="0.11261" x2="1.03786" y2="1.07911">
      <stop stroke="null" offset="0" stop-color="#FFFFFF"/>
      <stop stroke="null" offset="1" stop-color="#FFFFFF"/>
     </linearGradient>
     <linearGradient stroke="null" id="SVGID_00000167353776241918533240000012984874236834178988_" x1="0.20861" y1="0.03782" x2="0.777" y2="0.93936">
      <stop stroke="null" offset="0" stop-color="#999999"/>
      <stop stroke="null" offset="1" stop-color="#000000"/>
     </linearGradient>
     <linearGradient stroke="null" id="SVGID_00000112591668732485425270000016502066294887323275_" x1="0.20861" y1="0.03782" x2="0.777" y2="0.93936">
      <stop stroke="null" offset="0" stop-color="#FFFFFF"/>
      <stop stroke="null" offset="1" stop-color="#FFFFFF"/>
     </linearGradient>
     <linearGradient stroke="null" id="SVGID_00000048485637907241032050000009166410285435841455_" x1="0.13101" y1="0.09734" x2="0.97726" y2="1.10712">
      <stop stroke="null" offset="0" stop-color="#999999"/>
      <stop stroke="null" offset="1" stop-color="#000000"/>
     </linearGradient>
     <linearGradient stroke="null" id="SVGID_00000157292660262763035030000003614549885734123906_" x1="0.13101" y1="0.09734" x2="0.97726" y2="1.10712">
      <stop stroke="null" offset="0" stop-color="#FFFFFF"/>
      <stop stroke="null" offset="1" stop-color="#FFFFFF"/>
     </linearGradient>
     <linearGradient stroke="null" id="SVGID_00000090257281978123624090000002922550440720093342_" x1="0" y1="0.5" x2="1.18547" y2="0.5">
      <stop stroke="null" offset="0" stop-color="#E82546"/>
      <stop stroke="null" offset="1" stop-color="#FC3C53"/>
     </linearGradient>
    </defs>
    <mask stroke="null" maskUnits="userSpaceOnUse" x="1879.804" y="1310.126" width="425.174" height="560.614" id="SVGID_00000007393405301198145710000013769381437266733721_">
     <g stroke="null" filter="url(#Adobe_OpacityMaskFilter)" id="svg_100">
      <defs stroke="null">
       <filter stroke="null" id="Adobe_OpacityMaskFilter_00000001664174952993846910000014907043571373011110_" filterUnits="userSpaceOnUse" x="1879.804" y="1310.126" width="425.174" height="560.614"/>
      </defs>
      <mask stroke="null" maskUnits="userSpaceOnUse" x="1879.804" y="1310.126" width="425.174" height="560.614" id="SVGID_00000007393405301198145710000013769381437266733721_">
       <g stroke="null" filter="url(#Adobe_OpacityMaskFilter_00000001664174952993846910000014907043571373011110_)" id="svg_101"/>
      </mask>
      <polygon stroke="null" points="       1879.804,1310.126 2176.94,1870.741 2304.979,1870.741 2007.896,1310.126      " mask="url(#SVGID_00000007393405301198145710000013769381437266733721_)" fill="url(#SVGID_00000124846944185979319970000002649354721580293021_)" id="svg_102"/>
     </g>
    </mask>
    <polygon stroke="null" points="164.2787160873413,16.183620929718018 196.19970607757568,76.40984201431274 209.9547872543335,76.40984201431274 178.0395040512085,16.183620929718018 " fill="url(#SVGID_00000000923034256917642350000009192075638151186108_)" id="svg_103"/>
    <defs stroke="null" transform="translate(-6.42976 -5.11578) translate(-108.57 -54.2851) translate(0.395187 0) translate(-140.01 -200.015) translate(-690.05 -1110.08) translate(2410.18 -160.012) translate(-1760.13 370.027) translate(-60 -556) translate(-896 -100) translate(900 656) translate(254.615 259.415) scale(0.210294 0.210294) translate(-254.615 -259.415) translate(30.5751 24.3268) scale(0.510851 0.510851) translate(-30.5751 -24.3268)">
     <filter stroke="null" id="Adobe_OpacityMaskFilter_00000053525548098967650860000002577000254188539566_" filterUnits="userSpaceOnUse" x="1791.224" y="1313.766" width="340.972" height="556.974"/>
    </defs>
    <mask stroke="null" maskUnits="userSpaceOnUse" x="1791.224" y="1313.766" width="340.972" height="556.974" id="SVGID_00000152950290184326021020000018104237575196857762_">
     <g stroke="null" filter="url(#Adobe_OpacityMaskFilter_00000053525548098967650860000002577000254188539566_)" id="svg_104">
      <defs stroke="null">
       <filter stroke="null" id="Adobe_OpacityMaskFilter_00000160173734953842914390000006278845943691482253_" filterUnits="userSpaceOnUse" x="1791.224" y="1313.766" width="340.972" height="556.974"/>
      </defs>
      <mask stroke="null" maskUnits="userSpaceOnUse" x="1791.224" y="1313.766" width="340.972" height="556.974" id="SVGID_00000152950290184326021020000018104237575196857762_">
       <g stroke="null" filter="url(#Adobe_OpacityMaskFilter_00000160173734953842914390000006278845943691482253_)" id="svg_105"/>
      </mask>
      <path stroke="null" d="m1791.224,1355.688l272.949,515.052l68.024,0l-295.161,-556.974c-15.057,4.958 -28.139,14.685 -36.735,27.864l-9.077,14.058z" mask="url(#SVGID_00000152950290184326021020000018104237575196857762_)" fill="url(#SVGID_00000092431620808363444730000000109327438663841980_)" id="svg_106"/>
     </g>
    </mask>
    <path stroke="null" d="m154.76267,21.07829l29.3226,55.33145l7.30774,0l-31.70881,-59.83508c-1.61756,0.53263 -3.02294,1.57759 -3.9464,2.9934l-0.97513,1.51023z" fill="url(#SVGID_00000045606360755872412750000017083300336679530908_)" id="svg_107"/>
    <g stroke="null" id="svg_108">
     <rect stroke="null" x="118.2013" y="85.01598" width="0.45313" height="8.03041" fill="#424260" id="svg_109"/>
    </g>
    <g stroke="null" id="svg_110">
     <g stroke="null" opacity="0.4" id="svg_111">
      <path stroke="null" d="m305.08111,75.4388l0,-9.24436c0,-1.69985 -0.60536,-3.36435 -1.74454,-4.79681l-31.00977,-38.99292c-1.86314,-2.34281 -5.08482,-3.76055 -8.54543,-3.76055l-28.92318,0c-3.27465,0 -5.92932,2.13268 -5.92932,4.7634l0,51.33907c0,2.80314 2.8286,5.07558 6.31789,5.07558l64.37804,0c3.01338,0 5.45631,-1.96251 5.45631,-4.38342z" fill="#FCFFFF" id="svg_112"/>
     </g>
     <g stroke="null" id="svg_113">
      <path stroke="null" d="m305.08111,71.42365l0,-9.24436c0,-1.69985 -0.60536,-3.36435 -1.74454,-4.79681l-31.00977,-38.99292c-1.86314,-2.34281 -5.08482,-3.76055 -8.54543,-3.76055l-28.92318,0c-3.27465,0 -5.92932,2.13268 -5.92932,4.7634l0,51.33907c0,2.80314 2.8286,5.07558 6.31789,5.07558l64.37804,0c3.01338,0 5.45631,-1.96251 5.45631,-4.38342z" fill="#39D4FF" id="svg_114"/>
     </g>
     <g stroke="null" id="svg_115">
      <path stroke="null" d="m234.85819,14.62902l28.92318,0c3.46061,0 6.68229,1.41774 8.54543,3.76055l3.43246,4.31606c-1.80104,-1.21148 -4.08616,-1.91299 -6.49902,-1.91299l-28.92318,0c-3.27465,0 -5.92932,2.13268 -5.92932,4.7634l0,50.20108c-3.09159,-0.33045 -5.47876,-2.45163 -5.47876,-5.02563l0,-51.33907c-0.00011,-2.63083 2.65457,-4.7634 5.92921,-4.7634z" fill="#3B9DFF" id="svg_116"/>
     </g>
     <defs stroke="null" transform="translate(-6.42976 -5.11578) translate(-108.57 -54.2851) translate(0.395187 0) translate(-140.01 -200.015) translate(-690.05 -1110.08) translate(2410.18 -160.012) translate(-1760.13 370.027) translate(-60 -556) translate(-896 -100) translate(900 656) translate(254.615 259.415) scale(0.210294 0.210294) translate(-254.615 -259.415) translate(30.5751 24.3268) scale(0.510851 0.510851) translate(-30.5751 -24.3268)">
      <filter stroke="null" id="Adobe_OpacityMaskFilter_00000121992143808303191270000002611318927989878679_" filterUnits="userSpaceOnUse" x="2586.885" y="1295.642" width="507.634" height="569.47"/>
     </defs>
     <mask stroke="null" maskUnits="userSpaceOnUse" x="2586.885" y="1295.642" width="507.634" height="569.47" id="SVGID_00000165936855748154780730000010539819803892606122_">
      <g stroke="null" filter="url(#Adobe_OpacityMaskFilter_00000121992143808303191270000002611318927989878679_)" id="svg_117">
       <defs stroke="null">
        <filter stroke="null" id="Adobe_OpacityMaskFilter_00000139264826367135430790000009128420963943527323_" filterUnits="userSpaceOnUse" x="2586.885" y="1295.642" width="507.634" height="569.47"/>
       </defs>
       <mask stroke="null" maskUnits="userSpaceOnUse" x="2586.885" y="1295.642" width="507.634" height="569.47" id="SVGID_00000165936855748154780730000010539819803892606122_">
        <g stroke="null" filter="url(#Adobe_OpacityMaskFilter_00000139264826367135430790000009128420963943527323_)" id="svg_118"/>
       </mask>
       <polygon stroke="null" points="        2586.885,1295.642 2941.648,1865.113 3094.519,1865.113 2739.819,1295.642       " mask="url(#SVGID_00000165936855748154780730000010539819803892606122_)" fill="url(#SVGID_00000167353776241918533240000012984874236834178988_)" id="svg_119"/>
      </g>
     </mask>
     <polygon stroke="null" points="240.23962306976318,14.62761926651001 278.3514242172241,75.80523538589478 294.77418422698975,75.80523538589478 256.6691732406616,14.62761926651001 " fill="url(#SVGID_00000112591668732485425270000016502066294887323275_)" id="svg_120"/>
     <defs stroke="null" transform="translate(-6.42976 -5.11578) translate(-108.57 -54.2851) translate(0.395187 0) translate(-140.01 -200.015) translate(-690.05 -1110.08) translate(2410.18 -160.012) translate(-1760.13 370.027) translate(-60 -556) translate(-896 -100) translate(900 656) translate(254.615 259.415) scale(0.210294 0.210294) translate(-254.615 -259.415) translate(30.5751 24.3268) scale(0.510851 0.510851) translate(-30.5751 -24.3268)">
      <filter stroke="null" id="Adobe_OpacityMaskFilter_00000145766212368558020460000012780975520369637308_" filterUnits="userSpaceOnUse" x="2481.125" y="1299.34" width="407.101" height="565.773"/>
     </defs>
     <mask stroke="null" maskUnits="userSpaceOnUse" x="2481.125" y="1299.34" width="407.101" height="565.773" id="SVGID_00000039842125946169254320000006941104125469974426_">
      <g stroke="null" filter="url(#Adobe_OpacityMaskFilter_00000145766212368558020460000012780975520369637308_)" id="svg_121">
       <defs stroke="null">
        <filter stroke="null" id="Adobe_OpacityMaskFilter_00000000941912279705480650000002581492050780581549_" filterUnits="userSpaceOnUse" x="2481.125" y="1299.34" width="407.101" height="565.773"/>
       </defs>
       <mask stroke="null" maskUnits="userSpaceOnUse" x="2481.125" y="1299.34" width="407.101" height="565.773" id="SVGID_00000039842125946169254320000006941104125469974426_">
        <g stroke="null" filter="url(#Adobe_OpacityMaskFilter_00000000941912279705480650000002581492050780581549_)" id="svg_122"/>
       </mask>
       <path stroke="null" d="m2481.125,1341.924l325.885,523.189l81.216,0l-352.405,-565.773c-17.977,5.036 -33.596,14.917 -43.859,28.305l-10.837,14.279z" mask="url(#SVGID_00000039842125946169254320000006941104125469974426_)" fill="url(#SVGID_00000048485637907241032050000009166410285435841455_)" id="svg_123"/>
      </g>
     </mask>
     <path stroke="null" d="m228.87795,19.59964l35.00946,56.2056l8.72494,0l-37.85847,-60.78035c-1.93125,0.54101 -3.60918,1.60252 -4.71172,3.04077l-1.16421,1.53398z" fill="url(#SVGID_00000157292660262763035030000003614549885734123906_)" id="svg_124"/>
     <g stroke="null" id="svg_125">
      <path stroke="null" d="m299.62448,77.24125l-64.37761,0c-4.27459,0 -7.75239,-2.92024 -7.75239,-6.50976l0,-51.33929c0,-3.41753 3.30365,-6.19757 7.36371,-6.19757l28.92297,0c3.91106,0 7.52528,1.60832 9.66806,4.30188l31.01009,38.99335c1.34501,1.69222 2.05576,3.65935 2.05576,5.68933l0,9.24425c0,3.20761 -3.09116,5.81781 -6.89059,5.81781zm-64.76628,-61.17837c-2.43713,0 -4.49547,1.52442 -4.49547,3.32933l0,51.33929c0,2.00795 2.19112,3.64141 4.88415,3.64141l64.37761,0c2.18059,0 4.02224,-1.3507 4.02224,-2.94957l0,-9.24425c0,-1.37487 -0.49514,-2.72504 -1.43256,-3.90429l-31.01009,-38.99281c-1.57888,-1.98593 -4.4236,-3.21921 -7.42301,-3.21921l-28.92286,0l0,0.00011z" fill="#000072" id="svg_126"/>
     </g>
    </g>
    <g stroke="null" id="svg_127">
     <path stroke="null" d="m211.68869,77.84607l-92.80318,0c-0.52565,0 -1.00929,-0.28748 -1.26003,-0.74964c-0.25074,-0.46162 -0.22925,-1.02337 0.05662,-1.46458l36.85046,-56.84083c1.62089,-2.49267 4.53586,-4.04008 7.60757,-4.04008l49.23626,0c3.98088,0 7.21997,3.09438 7.21997,6.89736l0,49.59507c0,2.4135 -1.37649,4.63545 -3.59221,5.79837c-1.02423,0.5278 -2.16727,0.80432 -3.31547,0.80432zm-90.16472,-2.86835l90.16472,0c0.69345,0 1.38218,-0.16576 1.99227,-0.47999c1.25896,-0.66144 2.04738,-1.91041 2.04738,-3.25434l0,-49.59507c0,-2.22152 -1.95188,-4.02912 -4.35173,-4.02912l-49.23626,0c-2.11184,0 -4.10572,1.04754 -5.20203,2.73342l-35.41435,54.62511z" fill="#000072" id="svg_128"/>
    </g>
    <path stroke="null" d="m117.05407,89.03081c-0.04018,4.49472 -0.08036,8.98933 -0.12043,13.48393l105.43402,0l0,-9.43881c-30.70682,0 -61.41375,0 -92.12068,0c-4.39771,-1.34834 -8.79531,-2.69668 -13.19291,-4.04513z" fill="url(#SVGID_00000090257281978123624090000002922550440720093342_)" id="svg_129"/>
    <g stroke="null" opacity="0.4" id="svg_130">
     <path stroke="null" d="m123.36369,76.40985l0,4.5306l94.84529,0c-1.12424,-1.85401 -2.40909,-3.58673 -3.87184,-5.17109c-0.78584,0.41124 -1.69211,0.64049 -2.65006,0.64049l-88.32339,0z" fill="#FCFFFF" id="svg_131"/>
    </g>
    <g stroke="null" id="svg_132">
     <path stroke="null" d="m116.93353,82.05288l0,11.02317l105.43402,0l0,-0.07413c0,-2.21819 -0.43595,-4.41608 -1.30784,-6.46561c-0.82602,-1.96187 -1.77247,-3.83618 -2.85084,-5.59586l-94.84529,0l0,-4.5306l-3.15476,0l-3.27529,5.64302z" fill="#FC3C53" id="svg_133"/>
    </g>
    <g stroke="null" id="svg_134">
     <path stroke="null" d="m222.36755,102.51668l0,48.10804c0,1.77816 -1.5257,3.22362 -3.40732,3.22362l-76.80541,0l-3.0917,-2.79347l-8.28857,-7.49123l-13.84103,-12.51031l0,-28.53676l105.43402,0l0,0.00011z" fill="#FC3C53" id="svg_135"/>
    </g>
    <g stroke="null" id="svg_136">
     <path stroke="null" d="m221.79399,140.57518l0,7.49692c0,1.64635 -1.5257,2.98276 -3.40732,2.98276l-79.32343,0l-8.28857,-7.49123l87.61211,0c1.88151,0.00011 3.40721,-1.33642 3.40721,-2.98846z" fill="#E82546" id="svg_137"/>
    </g>
    <g stroke="null" id="svg_138">
     <path stroke="null" d="m218.96001,155.28241l-74.2356,0c-2.01322,0 -3.94414,-0.7433 -5.43751,-2.09293l-21.45172,-19.38812c-1.48445,-1.34179 -2.33583,-3.25907 -2.33583,-5.25972l0,-46.49134c0,-0.25278 0.06714,-0.50148 0.19412,-0.7202l3.27529,-5.6384c0.25654,-0.44164 0.72912,-0.71397 1.24005,-0.71397l91.47826,0c0.69292,0 1.38379,-0.16576 1.997,-0.47946c0.57281,-0.29221 1.26895,-0.16834 1.70533,0.30263c2.80379,3.0282 5.0903,6.68444 6.99126,11.17615c0.94258,2.22045 1.42107,4.5841 1.42107,7.02327l0,57.62452c0,2.5683 -2.17221,4.65758 -4.84171,4.65758zm-100.59231,-72.84601l0,46.10525c0,1.19128 0.50674,2.33325 1.39056,3.13209l21.45172,19.38812c0.96514,0.87232 2.21314,1.35231 3.51454,1.35231l74.2356,0c1.08847,0 1.97336,-0.8026 1.97336,-1.78923l0,-57.62452c0,-2.05211 -0.40125,-4.03857 -1.19332,-5.9044c-1.6167,-3.81985 -3.51765,-6.97342 -5.79632,-9.60983c-0.726,0.2371 -1.49079,0.35989 -2.25665,0.35989l-90.65309,0l-2.66638,4.59033z" fill="#000072" id="svg_139"/>
    </g>
    <g stroke="null" id="svg_140">
     <path stroke="null" d="m180.65099,94.23381l20.30459,0c0.68336,0 1.23737,-0.55401 1.23737,-1.23737l0,-3.67084c0,-0.68336 -0.55401,-1.23737 -1.23737,-1.23737l-20.30459,0c-0.68336,0 -1.23737,0.55401 -1.23737,1.23737l0,3.67084c0,0.68336 0.55401,1.23737 1.23737,1.23737z" fill="#000072" id="svg_141"/>
    </g>
    <g stroke="null" id="svg_142">
     <path stroke="null" d="m129.94338,66.90884c-15.27628,3.54612 -20.12315,28.06848 0.00516,25.77508c1.10856,-0.12634 1.95392,-0.97792 1.95392,-2.0101l0,-22.35165c-0.00011,-0.94645 -0.96568,-1.64388 -1.95907,-1.41333z" fill="#FC3C53" id="svg_143"/>
    </g>
    <g stroke="null" id="svg_144">
     <path stroke="null" d="m117.29524,78.93132c0.47484,5.24693 4.50127,9.3606 13.29228,8.35893c0.51684,-0.05887 0.97159,-0.27985 1.31493,-0.59881l0,3.98239c0,1.03218 -0.84536,1.88377 -1.95392,2.00999c-11.6773,1.33061 -14.94754,-6.36409 -12.65329,-13.75251z" fill="#E82546" id="svg_145"/>
    </g>
    <g stroke="null" id="svg_146">
     <path stroke="null" d="m28.89128,97.77874l0,16.65169c0,2.28866 -1.85272,4.14138 -4.14138,4.14138l-13.97306,0c1.69791,-9.76271 3.91202,-19.70331 6.49322,-29.77004c0.17779,-0.6884 0.38997,-1.35371 0.64812,-2.00183c6.06296,0.00569 10.97311,4.91573 10.97311,10.9788z" fill="#39D4FF" id="svg_147"/>
    </g>
    <g stroke="null" id="svg_148">
     <path stroke="null" d="m25.03663,110.82813l-12.81283,0c-0.51555,2.59269 -1.00016,5.17463 -1.44696,7.74369l13.97306,0c2.28866,0 4.14138,-1.85272 4.14138,-4.14138l0,-6.23614c-0.60289,1.54139 -2.09862,2.63383 -3.85466,2.63383z" fill="#3B9DFF" id="svg_149"/>
    </g>
    <g stroke="null" id="svg_150">
     <path stroke="null" d="m127.45404,94.26518c-6.67649,0.00054 -11.12523,-3.18355 -12.0967,-8.81722c-1.30086,-7.5457 4.52222,-17.67387 14.26161,-19.93568l0,0c0.93216,-0.21507 1.88731,-0.00312 2.62642,0.5828c0.69345,0.55079 1.09105,1.36274 1.09105,2.22722l0,22.35186c0,1.7483 -1.38691,3.22544 -3.22544,3.43482c-0.91959,0.10474 -1.80717,0.1562 -2.65693,0.1562zm2.8777,-25.96652c-0.01944,0 -0.04039,0.00204 -0.06349,0.00731l-0.00054,0c-8.09863,1.88001 -13.14586,10.49634 -12.08414,16.65459c0.81882,4.74932 5.0425,7.04637 11.60264,6.29888c0.38245,-0.04351 0.68196,-0.30059 0.68196,-0.58538l0,-22.35186c0,0.02095 -0.052,-0.02353 -0.13643,-0.02353zm-0.38814,-1.38959l0.00526,0l-0.00526,0z" fill="#000072" id="svg_151"/>
    </g>
    <g stroke="null" id="svg_152">
     <path stroke="null" d="m347.81449,100.22898l-18.2368,0c-1.96616,0 -3.56009,1.59392 -3.56009,3.56009l0,25.5627c0,1.96616 1.59392,3.56009 3.56009,3.56009l18.2368,0l0,-32.68287z" fill="#FEDA24" id="svg_153"/>
    </g>
    <g stroke="null" id="svg_154">
     <path stroke="null" d="m347.81449,128.8967l0,4.01526l-18.23487,0c-1.96745,0 -3.56202,-1.59467 -3.56202,-3.56202l0,-10.98449c0,1.1988 1.53151,2.17393 3.44159,2.20831l0,4.76092c0,1.96745 1.59467,3.56202 3.56202,3.56202l14.79328,0z" fill="#FCA027" id="svg_155"/>
    </g>
    <g stroke="null" id="svg_156">
     <path stroke="null" d="m329.4593,100.23371l0,20.33994c-1.91019,-0.03448 -3.44159,-1.00951 -3.44159,-2.20831l0,-14.5753c-0.00011,-1.92727 1.5314,-3.49316 3.44159,-3.55633z" fill="#E5201C" id="svg_157"/>
    </g>
    <g stroke="null" id="svg_158">
     <path stroke="null" d="m329.4593,100.23371c-1.91019,0.06306 -3.44159,1.62905 -3.44159,3.55633l0,-1.34222c-0.00011,-1.20449 1.5314,-2.17973 3.44159,-2.21411z" fill="#EF3D30" id="svg_159"/>
    </g>
    <g stroke="null" id="svg_160">
     <path stroke="null" d="m347.81449,100.22801l0,20.35143l-18.23487,0c-0.04007,0 -0.08025,0 -0.12043,-0.00569l0,-20.33994c0.04018,-0.00569 0.08036,-0.00569 0.12043,-0.00569l18.23487,0l0,-0.00011z" fill="#EF3D30" id="svg_161"/>
    </g>
    <g stroke="null" id="svg_162">
     <path stroke="null" d="m347.81438,134.34581l-18.23669,0c-2.75394,0 -4.99426,-2.24032 -4.99426,-4.99426l0,-25.56259c0,-2.75394 2.24032,-4.99426 4.99426,-4.99426l18.23669,0c0.79207,0 1.43418,0.6421 1.43418,1.43418l0,32.68298c-0.00011,0.79197 -0.6421,1.43396 -1.43418,1.43396zm-18.23669,-32.68287c-1.17237,0 -2.12602,0.95365 -2.12602,2.12602l0,25.56259c0,1.17237 0.95365,2.12602 2.12602,2.12602l16.80252,0l0,-29.81463l-16.80252,0z" fill="#000072" id="svg_163"/>
    </g>
    <g stroke="null" id="svg_164">
     <path stroke="null" d="m24.74979,120.0061l-13.97306,0c-0.42327,0 -0.82516,-0.18725 -1.09739,-0.51093c-0.27276,-0.32422 -0.38814,-0.75168 -0.3153,-1.16872c1.624,-9.33761 3.75582,-19.11159 6.51706,-29.8808c0.20143,-0.78058 0.43219,-1.49186 0.70452,-2.1764c0.21765,-0.54552 0.74545,-0.90326 1.33233,-0.90326c0.00054,0 0.00107,0 0.00107,0c6.84075,0.00623 12.40621,5.57448 12.40621,12.41255l0,16.65201c0.00011,3.07451 -2.50094,5.57556 -5.57545,5.57556zm-12.26354,-2.86824l12.26354,0c1.49283,0 2.70721,-1.21438 2.70721,-2.70721l0,-16.65201c0,-4.92293 -3.75163,-8.9904 -8.54758,-9.49231c-0.08917,0.2806 -0.17264,0.5712 -0.25074,0.87447c-2.57657,10.04771 -4.60086,19.22171 -6.17243,27.97705z" fill="#000072" id="svg_165"/>
    </g>
   </g>
   <g stroke="null" id="svg_166">
    <path stroke="null" d="m270.92035,184.35953c-11.50767,0 -22.1918,-5.54301 -28.86152,-14.89942l-8.12538,0.56282c-0.09755,0.00634 -0.18198,0.00892 -0.26599,0.00892l-130.78154,0c-0.15942,0 -0.31992,-0.00999 -0.47784,-0.02987l-0.82935,-0.10335c-6.68755,9.08214 -17.25103,14.46089 -28.55148,14.46089c-11.21923,0 -21.75596,-5.33159 -28.44824,-14.32768l-20.68371,0c-5.83468,0 -11.48984,-2.30177 -15.51584,-6.31456c-3.87012,-3.86282 -6.61461,-9.03541 -8.15836,-15.37629c-0.56024,-2.30435 -0.04405,-4.69786 1.41527,-6.56852c0.66724,-0.85503 1.4881,-1.54536 2.42134,-2.04469c0.6305,-6.92884 1.61358,-14.25946 2.92497,-21.81418c1.23425,-7.09772 2.73611,-14.33552 4.59194,-22.12884c0.61428,-2.57711 1.27518,-5.24865 1.96498,-7.93964c0.22657,-0.87705 0.48783,-1.6833 0.79992,-2.46861c3.17302,-8.17308 11.2391,-13.67623 20.06427,-13.67623l65.70629,0c0.82043,0 1.58468,-0.40447 2.04416,-1.08159l40.11426,-58.98672c4.9471,-7.28346 13.16261,-11.63197 21.97576,-11.63197l114.37661,0c5.07193,0 9.8233,2.23044 13.03628,6.11893c15.05368,18.23089 29.81731,39.72086 45.13484,65.69791c0.37611,0.63362 1.06483,1.03078 1.79342,1.03078c3.49509,0 6.78037,1.36016 9.25048,3.8293c2.46957,2.47065 3.82973,5.75593 3.82973,9.25102l0,54.49651c1.27153,1.06065 2.25558,2.44551 2.83,4.00656c0.9096,2.47065 0.75533,5.13488 -0.43433,7.50219c-0.11484,0.23076 -0.23452,0.46323 -0.36139,0.69506c-3.78783,7.15079 -11.01038,12.24044 -19.30464,13.58599c-10.20832,1.65602 -20.21113,2.83677 -29.73072,3.51035c-1.54064,0.11011 -3.11898,0.20873 -4.82377,0.30166c-0.12644,0.00784 -0.30789,0.00838 -0.46689,-0.00258c-6.69336,9.01317 -17.18658,14.33584 -28.4535,14.33584zm-27.64714,-19.82342c0.81098,0 1.57319,0.40812 2.0216,1.0932c5.6977,8.70131 15.27714,13.89603 25.62554,13.89603c10.30275,0 19.85908,-5.15895 25.56366,-13.79999c0.42907,-0.64994 1.14562,-1.05334 1.92351,-1.08374c0.59752,-0.01568 1.16088,0.17103 1.61036,0.53349c1.51754,-0.08498 2.9254,-0.17414 4.30349,-0.27276c9.37747,-0.66305 19.23439,-1.82704 29.2995,-3.4605c6.80873,-1.10415 12.72366,-5.25606 15.82266,-11.10589c0.11226,-0.20562 0.20358,-0.38245 0.29371,-0.56497c0.58699,-1.16764 0.66413,-2.46807 0.22184,-3.66977l0,0c-0.36246,-0.98459 -1.0586,-1.82651 -1.96025,-2.37149c-0.72493,-0.43745 -1.16764,-1.22222 -1.16764,-2.06887l0,-55.73291c0,-2.20412 -0.85717,-4.27567 -2.41403,-5.83253c-1.55632,-1.55632 -3.62787,-2.4135 -5.83199,-2.4135c-2.4266,0 -4.70786,-1.30408 -5.95424,-3.40335c-15.19055,-25.76198 -29.81151,-47.04836 -44.70158,-65.08105c-2.29071,-2.77285 -5.68352,-4.36322 -9.30871,-4.36322l-114.3764,0c-7.20998,0 -13.93062,3.55697 -17.97758,9.51487l-40.11372,58.98564c-1.35855,2.00269 -3.61842,3.19977 -6.04287,3.19977l-65.70629,0c-6.84601,0 -13.10074,4.26364 -15.56462,10.60967c-0.24397,0.61267 -0.44325,1.22952 -0.61739,1.90514c-0.6825,2.66112 -1.33652,5.30484 -1.94403,7.8552c-1.83284,7.6947 -3.31515,14.837 -4.53221,21.83567c-1.38111,7.95693 -2.39094,15.65324 -3.00049,22.87537c-0.08605,1.01714 -0.80153,1.87055 -1.78772,2.13236c-0.60268,0.1605 -1.12521,0.50567 -1.51023,0.99877c-0.54499,0.69872 -0.7375,1.59199 -0.52876,2.45174c1.33029,5.46426 3.64356,9.87056 6.8748,13.09547c3.12586,3.11587 7.53732,4.90359 12.10197,4.90359l21.52455,0c0.90906,-0.12956 1.8496,0.25912 2.36999,1.01553c5.73445,8.33573 15.16906,13.31216 25.2374,13.31216c10.19049,0 19.6886,-5.06774 25.40736,-13.55613c0.50932,-0.75533 1.39851,-1.16141 2.30489,-1.04754l2.20734,0.27588l130.69129,0l9.46771,-0.65575c0.05586,-0.00355 0.11194,-0.00559 0.16759,-0.00559z" fill="#000072" id="svg_167"/>
   </g>
  </g>
 </g>
</svg>