<svg width="15" height="14" viewBox="0 0 15 14" fill="none" xmlns="http://www.w3.org/2000/svg">
<path fill-rule="evenodd" clip-rule="evenodd" d="M7.96452 1.5C11.0257 1.5 13.5 3.96643 13.5 7C13.5 10.0336 11.0257 12.5 7.96452 12.5C6.12055 12.5 4.48831 11.6051 3.48161 10.2273L3.03915 9.6217L1.828 10.5066L2.27046 11.1122C3.54872 12.8617 5.62368 14 7.96452 14C11.8461 14 15 10.87 15 7C15 3.13001 11.8461 0 7.96452 0C5.06835 0 2.57851 1.74164 1.5 4.23347V2.75V2H0V2.75V6.25C0 6.66421 0.335786 7 0.75 7H3.75H4.5V5.5H3.75H2.63724C3.29365 3.19393 5.42843 1.5 7.96452 1.5Z" fill="#006CEC"/>
</svg>
